HIERARCHY
ROOT root
{
	OFFSET	0	13.1	24.9
	CHANNELS 6  Xposition Yposition Zposition Xrotation Yrotation Zrotation
	JOINT spine_1
	{
		OFFSET	0	9.99999	0
		CHANNELS 3  Xrotation Yrotation Zrotation
		JOINT spine_2
		{
			OFFSET	0	112	-10
			CHANNELS 3  Xrotation Yrotation Zrotation
			JOINT spine_3
			{
				OFFSET	0	206.5	19.3
				CHANNELS 3  Xrotation Yrotation Zrotation
				JOINT spine_4
				{
					OFFSET	0	110.4	14.6
					CHANNELS 3  Xrotation Yrotation Zrotation
					JOINT neck_1
					{
						OFFSET	0	71.8	-50.3
						CHANNELS 3  Xrotation Yrotation Zrotation
						JOINT neck_2
						{
							OFFSET	0	86.2	-25.8
							CHANNELS 3  Xrotation Yrotation Zrotation
							JOINT head_ee
							{
								OFFSET	0	179.8	-8.7
								CHANNELS 3  Xrotation Yrotation Zrotation
								End Site
								{
									OFFSET	1	0	0
								}
							}
						}
					}
					JOINT left_clavicle
					{
						OFFSET	-43.2	22.4	-70.8
						CHANNELS 3  Xrotation Yrotation Zrotation
						JOINT left_shoulder
						{
							OFFSET	-93.9	-5.79999	48.7
							CHANNELS 3  Xrotation Yrotation Zrotation
							JOINT left_elbow
							{
								OFFSET	-291.4	-30.8	15.2
								CHANNELS 3  Xrotation Yrotation Zrotation
								JOINT left_lowarm_twist
								{
									OFFSET	-110.7	-3.89999	13.6
									CHANNELS 3  Xrotation Yrotation Zrotation
									JOINT left_hand
									{
										OFFSET	-110.7	-3.89999	13.6
										CHANNELS 3  Xrotation Yrotation Zrotation
										JOINT left_ee
										{
											OFFSET	-80.8	-5.10001	12.1
											CHANNELS 3  Xrotation Yrotation Zrotation
											End Site
											{
												OFFSET	1	0	0
											}
										}
									}
								}
							}
						}
					}
					JOINT right_clavicle
					{
						OFFSET	43.2	22.4	-70.8
						CHANNELS 3  Xrotation Yrotation Zrotation
						JOINT right_shoulder
						{
							OFFSET	93.9	-5.79999	48.7
							CHANNELS 3  Xrotation Yrotation Zrotation
							JOINT right_elbow
							{
								OFFSET	291.4	-30.8	15.2
								CHANNELS 3  Xrotation Yrotation Zrotation
								JOINT right_lowarm_twist
								{
									OFFSET	110.7	-3.89999	13.6
									CHANNELS 3  Xrotation Yrotation Zrotation
									JOINT right_hand
									{
										OFFSET	110.7	-3.89999	13.6
										CHANNELS 3  Xrotation Yrotation Zrotation
										JOINT right_ee
										{
											OFFSET	80.8	-5.10001	12.1
											CHANNELS 3  Xrotation Yrotation Zrotation
											End Site
											{
												OFFSET	1	0	0
											}
										}
									}
								}
							}
						}
					}
				}
			}
		}
	}
	JOINT left_hip
	{
		OFFSET	-82.8	-127.5	0.300001
		CHANNELS 3  Xrotation Yrotation Zrotation
		JOINT left_knee
		{
			OFFSET	-28.2	-396.7	2.2
			CHANNELS 3  Xrotation Yrotation Zrotation
			JOINT left_ankle
			{
				OFFSET	-11.7	-411.3	35.4
				CHANNELS 3  Xrotation Yrotation Zrotation
				JOINT left_toes
				{
					OFFSET	0	-60	-88.6
					CHANNELS 3  Xrotation Yrotation Zrotation
					JOINT left_foot_ee
					{
						OFFSET	-22.5	-16.5	-42.2
						CHANNELS 3  Xrotation Yrotation Zrotation
						End Site
						{
							OFFSET	1	0	0
						}
					}
				}
			}
		}
	}
	JOINT right_hip
	{
		OFFSET	82.8	-127.5	0.300001
		CHANNELS 3  Xrotation Yrotation Zrotation
		JOINT right_knee
		{
			OFFSET	28.2	-396.7	2.2
			CHANNELS 3  Xrotation Yrotation Zrotation
			JOINT right_ankle
			{
				OFFSET	11.7	-411.3	35.4
				CHANNELS 3  Xrotation Yrotation Zrotation
				JOINT right_toes
				{
					OFFSET	0	-60	-88.6
					CHANNELS 3  Xrotation Yrotation Zrotation
					JOINT right_foot_ee
					{
						OFFSET	22.5	-16.5	-42.2
						CHANNELS 3  Xrotation Yrotation Zrotation
						End Site
						{
							OFFSET	1	0	0
						}
					}
				}
			}
		}
	}
}
MOTION
Frames: 5
Frame Time: 0.02
1017.43141176 732.789 -1580.93859061 25.7162691959 59.0667680545 -27.1196557619 -3.39847 0.662004 1.70634 -3.39702 0.552101 1.74499 -3.37734 0.0654904 1.82905 -3.38184 0.353486 1.79578 -12.2003 8.33737 2.89689 -12.2869 13.9728 5.16542 -0.0 0.0 -0.0 2.02194 5.84876 4.36363 -12.4346 -10.77 70.7002 0.305766 -8.61316 0.0230261 -85.145 -8.47005 5.181 -7.37397 24.5412 -34.6176 -0.0 0.0 -0.0 6.65828 29.1038 -11.1441 0.511585 33.8393 -60.1454 0.946534 25.1208 -0.210893 22.4123 -0.237949 2.83488 -0.0612215 -28.1264 -10.7003 0.0 0.0 0.0 2.35327 19.2353 -0.472998 -54.7706 -1.66254 7.92467 35.0762 17.4653 -4.50191 -37.9722 0.0 0.0 -0.0 0.0 -0.0 -3.61046 27.0173 -2.57538 -20.5775 -0.288326 -3.12767 15.7144 14.0107 2.34878 8.88171 -0.0 -0.0 0.0 0.0 0.0 
999.143238928 734.096 -1584.06680139 27.4515892354 60.669041299 -28.4050810568 -3.62172 0.665986 1.74205 -3.6202 0.553804 1.78088 -3.5999 0.0502941 1.8643 -3.60458 0.344044 1.83298 -12.3749 8.55331 3.07814 -12.4673 14.2853 5.42317 -0.0 0.0 -0.0 1.941 7.15145 4.31725 -13.6859 -10.9354 70.3829 0.227206 -6.42184 0.0127462 -84.9151 -8.44132 5.18666 -7.14689 23.9356 -33.5926 -0.0 0.0 -0.0 6.50021 28.8384 -10.8288 1.42169 34.216 -58.3786 1.1366 29.3802 -0.297981 22.7703 -0.232702 2.88031 -0.102551 -28.1902 -10.4943 0.0 0.0 0.0 6.91618 21.5952 -2.0978 -56.6123 -1.8455 8.14176 33.5982 15.702 -4.32515 -38.7623 0.0 0.0 -0.0 0.0 -0.0 -5.63783 26.2191 -3.13196 -18.7468 -0.308447 -2.8475 14.6276 13.4992 2.18965 8.14167 -0.0 -0.0 0.0 0.0 0.0 
976.67559404 731.458 -1582.24483422 30.506550413 61.8606132745 -31.3565891463 -3.60334 0.783302 1.79364 -3.60179 0.667601 1.83983 -3.57697 0.144695 1.95181 -3.58201 0.451076 1.9045 -13.323 7.7409 2.21118 -13.4314 13.369 4.46929 -0.0 0.0 -0.0 1.75682 8.20169 4.07162 -15.6314 -11.427 70.261 0.196419 -5.55754 0.00953351 -85.2557 -8.48387 5.17823 -6.86377 23.3468 -32.1473 -0.0 0.0 -0.0 5.7101 29.209 -9.06508 3.07075 33.6735 -57.8656 1.35268 33.8234 -0.411293 23.2328 -0.225505 2.93894 -0.134624 -27.6576 -10.1256 0.0 0.0 0.0 13.2167 21.3658 -5.84574 -56.0154 -1.78544 8.07204 30.9754 14.3331 -4.03346 -40.2156 0.0 0.0 -0.0 0.0 -0.0 -10.0125 25.4596 -2.59534 -16.0096 -0.321811 -2.42778 15.8348 11.4176 2.32652 7.25645 -0.0 -0.0 0.0 0.0 0.0 
957.090152621 735.261 -1570.00641803 31.5847938264 64.3489634664 -31.7198906826 -3.50317 0.444059 1.50191 -3.50198 0.3476 1.52712 -3.4906 -0.0764875 1.5643 -3.49398 0.171494 1.55676 -12.2719 6.93646 1.69407 -12.3468 12.085 3.61641 -0.0 0.0 -0.0 1.3722 9.35333 3.493 -17.2529 -12.2499 72.5588 0.191114 -5.40835 0.00902669 -85.2802 -8.48693 5.17761 -5.74953 18.5424 -28.4528 -0.0 0.0 -0.0 5.64536 28.1635 -9.03917 4.86843 31.1297 -58.0391 1.65136 39.2812 -0.589377 20.5673 -0.260482 2.60029 -0.847159 -20.1159 -3.06559 0.0 0.0 0.0 14.6676 21.0133 -7.8646 -51.545 -1.35937 7.53091 26.6061 14.119 -3.5458 -40.1911 0.0 0.0 -0.0 0.0 -0.0 -10.3736 25.0139 -3.33305 -12.9219 -0.312811 -1.95418 8.79286 8.0247 1.30539 6.75151 -0.0 -0.0 0.0 0.0 0.0 
933.823703964 730.796 -1564.48768308 32.4473577035 65.2297047775 -31.3261133975 -3.44979 0.546943 1.3574 -3.44888 0.459468 1.38945 -3.43588 0.0697609 1.46177 -3.43874 0.299721 1.43242 -11.4111 5.94171 0.399599 -11.4673 10.9837 2.00624 -0.0 0.0 -0.0 0.604334 12.0569 2.43636 -18.7174 -14.6702 72.9001 0.215889 -6.10444 0.0115116 -85.2038 -8.47739 5.17953 -5.3714 18.3 -26.0177 -0.0 0.0 -0.0 5.85022 26.7028 -9.64146 6.68264 27.5997 -57.5222 1.96828 44.2707 -0.800714 17.7028 -0.280469 2.235 -1.03092 -16.7733 -0.521585 0.0 0.0 0.0 16.5415 20.2649 -10.0961 -47.0675 -0.97647 6.95778 23.9042 17.2226 -3.25659 -40.15 0.0 0.0 -0.0 0.0 -0.0 -11.3129 24.4157 -4.98901 -11.1741 -0.29641 -1.68652 8.38245 5.63321 1.23263 8.5648 -0.0 -0.0 0.0 0.0 0.0 
